<svg id="visual" viewBox="0 0 900 100" width="900" height="100" xmlns="http://www.w3.org/2000/svg" xmlns:xlink="http://www.w3.org/1999/xlink" version="1.1"><rect x="0" y="0" width="900" height="100" fill="#8440ae"></rect><path d="M0 19L12.5 24.2C25 29.3 50 39.7 75 37.3C100 35 125 20 150 23.3C175 26.7 200 48.3 225 51.5C250 54.7 275 39.3 300 30.3C325 21.3 350 18.7 375 22.7C400 26.7 425 37.3 450 42.8C475 48.3 500 48.7 525 56.3C550 64 575 79 600 73.3C625 67.7 650 41.3 675 29.2C700 17 725 19 750 32C775 45 800 69 825 76.8C850 84.7 875 76.3 887.5 72.2L900 68L900 0L887.5 0C875 0 850 0 825 0C800 0 775 0 750 0C725 0 700 0 675 0C650 0 625 0 600 0C575 0 550 0 525 0C500 0 475 0 450 0C425 0 400 0 375 0C350 0 325 0 300 0C275 0 250 0 225 0C200 0 175 0 150 0C125 0 100 0 75 0C50 0 25 0 12.5 0L0 0Z" fill="#570990" stroke-linecap="round" stroke-linejoin="miter"></path></svg>