<svg id="visual" viewBox="0 0 900 100" width="900" height="100" xmlns="http://www.w3.org/2000/svg" xmlns:xlink="http://www.w3.org/1999/xlink" version="1.1"><rect x="0" y="0" width="900" height="100" fill="#570990"></rect><path d="M0 46L16.7 49C33.3 52 66.7 58 100 52.2C133.3 46.3 166.7 28.7 200 33.5C233.3 38.3 266.7 65.7 300 71.8C333.3 78 366.7 63 400 55.2C433.3 47.3 466.7 46.7 500 53C533.3 59.3 566.7 72.7 600 80.7C633.3 88.7 666.7 91.3 700 91C733.3 90.7 766.7 87.3 800 82.2C833.3 77 866.7 70 883.3 66.5L900 63L900 0L883.3 0C866.7 0 833.3 0 800 0C766.7 0 733.3 0 700 0C666.7 0 633.3 0 600 0C566.7 0 533.3 0 500 0C466.7 0 433.3 0 400 0C366.7 0 333.3 0 300 0C266.7 0 233.3 0 200 0C166.7 0 133.3 0 100 0C66.7 0 33.3 0 16.7 0L0 0Z" fill="#8440ae" stroke-linecap="round" stroke-linejoin="miter"></path></svg>