<svg id="visual" viewBox="0 0 900 100" width="900" height="100" xmlns="http://www.w3.org/2000/svg" xmlns:xlink="http://www.w3.org/1999/xlink" version="1.1"><rect x="0" y="0" width="900" height="100" fill="#8440ae"></rect><path d="M0 20L21.5 30.2C43 40.3 86 60.7 128.8 64.8C171.7 69 214.3 57 257.2 53C300 49 343 53 385.8 57.5C428.7 62 471.3 67 514.2 66.7C557 66.3 600 60.7 642.8 51C685.7 41.3 728.3 27.7 771.2 26.8C814 26 857 38 878.5 44L900 50L900 0L878.5 0C857 0 814 0 771.2 0C728.3 0 685.7 0 642.8 0C600 0 557 0 514.2 0C471.3 0 428.7 0 385.8 0C343 0 300 0 257.2 0C214.3 0 171.7 0 128.8 0C86 0 43 0 21.5 0L0 0Z" fill="#121212" stroke-linecap="round" stroke-linejoin="miter"></path></svg>