{
    "asset" : {
        "generator" : "Khronos glTF Blender I/O v3.3.32",
        "version" : "2.0"
    },
    "scene" : 0,
    "scenes" : [
        {
            "name" : "Scene",
            "nodes" : [
                0
            ]
        }
    ],
    "nodes" : [
        {
            "mesh" : 0,
            "name" : "Curve.001",
            "scale" : [
                190.0939178466797,
                190.0939178466797,
                190.0939178466797
            ],
            "translation" : [
                -3,
                0,
                -2.981863498687744
            ]
        }
    ],
    "materials" : [
        {
            "doubleSided" : true,
            "name" : "SVGMat",
            "pbrMetallicRoughness" : {
                "baseColorFactor" : [
                    1,
                    0.6583744287490845,
                    0.043735239654779434,
                    1
                ],
                "metallicFactor" : 0.8141025900840759,
                "roughnessFactor" : 0.4000000059604645
            }
        },
        {
            "doubleSided" : true,
            "name" : "SVGMat.001",
            "pbrMetallicRoughness" : {
                "baseColorFactor" : [
                    0.07035961002111435,
                    0.2581826150417328,
                    0.5149174332618713,
                    1
                ],
                "metallicFactor" : 0.8012820482254028,
                "roughnessFactor" : 0.4000000059604645
            }
        }
    ],
    "meshes" : [
        {
            "name" : "Curve.001",
            "primitives" : [
                {
                    "attributes" : {
                        "POSITION" : 0,
                        "NORMAL" : 1,
                        "TEXCOORD_0" : 2
                    },
                    "indices" : 3,
                    "material" : 0
                },
                {
                    "attributes" : {
                        "POSITION" : 4,
                        "NORMAL" : 5,
                        "TEXCOORD_0" : 6
                    },
                    "indices" : 7,
                    "material" : 1
                }
            ]
        }
    ],
    "accessors" : [
        {
            "bufferView" : 0,
            "componentType" : 5126,
            "count" : 1450,
            "max" : [
                0.031520068645477295,
                0.0010000000474974513,
                0.03135031834244728
            ],
            "min" : [
                0.00814845785498619,
                -0.0010000000474974513,
                0.007928532548248768
            ],
            "type" : "VEC3"
        },
        {
            "bufferView" : 1,
            "componentType" : 5126,
            "count" : 1450,
            "type" : "VEC3"
        },
        {
            "bufferView" : 2,
            "componentType" : 5126,
            "count" : 1450,
            "type" : "VEC2"
        },
        {
            "bufferView" : 3,
            "componentType" : 5123,
            "count" : 2784,
            "type" : "SCALAR"
        },
        {
            "bufferView" : 4,
            "componentType" : 5126,
            "count" : 1548,
            "max" : [
                0.02337227575480938,
                0.0010000000474974513,
                0.023421775549650192
            ],
            "min" : [
                0,
                -0.0010000000474974513,
                0
            ],
            "type" : "VEC3"
        },
        {
            "bufferView" : 5,
            "componentType" : 5126,
            "count" : 1548,
            "type" : "VEC3"
        },
        {
            "bufferView" : 6,
            "componentType" : 5126,
            "count" : 1548,
            "type" : "VEC2"
        },
        {
            "bufferView" : 7,
            "componentType" : 5123,
            "count" : 2784,
            "type" : "SCALAR"
        }
    ],
    "bufferViews" : [
        {
            "buffer" : 0,
            "byteLength" : 17400,
            "byteOffset" : 0,
            "target" : 34962
        },
        {
            "buffer" : 0,
            "byteLength" : 17400,
            "byteOffset" : 17400,
            "target" : 34962
        },
        {
            "buffer" : 0,
            "byteLength" : 11600,
            "byteOffset" : 34800,
            "target" : 34962
        },
        {
            "buffer" : 0,
            "byteLength" : 5568,
            "byteOffset" : 46400,
            "target" : 34963
        },
        {
            "buffer" : 0,
            "byteLength" : 18576,
            "byteOffset" : 51968,
            "target" : 34962
        },
        {
            "buffer" : 0,
            "byteLength" : 18576,
            "byteOffset" : 70544,
            "target" : 34962
        },
        {
            "buffer" : 0,
            "byteLength" : 12384,
            "byteOffset" : 89120,
            "target" : 34962
        },
        {
            "buffer" : 0,
            "byteLength" : 5568,
            "byteOffset" : 101504,
            "target" : 34963
        }
    ],
    "buffers" : [
        {
            "byteLength" : 107072,
            "uri" : "data:application/octet-stream;base64,"
        }
    ]
}
